<?xml version="1.0" encoding="utf-8"?>
<!-- Generator: Adobe Illustrator 25.0.1, SVG Export Plug-In . SVG Version: 6.00 Build 0)  -->
<svg version="1.0" id="Layer_1" xmlns="http://www.w3.org/2000/svg" xmlns:xlink="http://www.w3.org/1999/xlink" x="0px" y="0px"
	 viewBox="0 0 432 300" style="enable-background:new 0 0 432 300;" xml:space="preserve">
<style type="text/css">
	.st0{fill:#2AAB4F;}
	.st1{fill:#FBBA14;}
	.st2{fill:#EE3D2C;}
	.st3{fill:#517ABD;}
</style>
<g>
	<polygon class="st0" points="319.5,236.3 316.5,231 315.9,229.9 314.7,227.9 216,227.9 117.3,227.9 116.1,229.9 115.5,231 
		112.5,236.3 107.8,244.5 216,244.5 324.2,244.5 	"/>
	<polygon class="st1" points="319.5,236.3 316.5,231 315.9,229.9 314.7,227.9 216,55.5 117.3,227.9 116.1,229.9 115.5,231 
		112.5,236.3 107.8,244.5 121.9,244.5 128.2,242.5 136.5,227.9 140,221.8 140.1,221.8 142.1,218.2 161.7,183.9 216,89.1 
		270.3,183.9 289.9,218.2 292,221.8 292,221.8 295.5,227.9 303.8,242.5 310,244.5 324.2,244.5 	"/>
	<polygon class="st2" points="316.5,231 315.1,229.6 313.4,227.9 270.3,183.9 216,128.6 161.7,183.9 118.6,227.9 116.9,229.6 
		115.5,231 112.5,236.3 128.4,227.9 140,221.8 140.1,221.8 157.3,212.7 159.7,210.2 216,151.7 272.3,210.2 274.7,212.7 292,221.8 
		292,221.8 303.6,227.9 319.5,236.3 	"/>
	<polygon class="st3" points="319.5,236.3 316.5,231 315.9,229.9 315.1,229.6 311.4,227.9 289.9,218.2 272.3,210.2 216,184.8 
		159.7,210.2 142.1,218.2 120.6,227.9 116.9,229.6 116.1,229.9 115.5,231 112.5,236.3 107.8,244.5 123.7,244.5 128.2,242.5 
		160.6,227.9 216,202.9 271.4,227.9 303.8,242.5 308.3,244.5 324.2,244.5 	"/>
</g>
</svg>
